# xmcd CD database file
#
# Track frame offsets:
#	150
#	28767
#	69437
#	96067
#	127690
#	154892
#	189070
#	233425
#	255961
#	290952
#
# Disc length: 4311 seconds
#
# Revision: 2
# Processed by: cddbd v1.5.2PL0 Copyright (c) Steve Scherf et al.
# Submitted via: NeoAudio 9.9.9
#
DISCID=7710d50a
DTITLE=Magic Slim and The Teardrops - Live 'On The Road'
DYEAR=1990
DGENRE=Blues
TTITLE0=Walking down Broadway
TTITLE1=Gold tailed bird
TTITLE2=Don't you know
TTITLE3=Down the road
TTITLE4=Sweet home Chicago
TTITLE5=Look under yonder's wall
TTITLE6=What's on your mind
TTITLE7=There's some pretty girl
TTITLE8=Long distance call
TTITLE9=On wee Baby
EXTD=YEAR: 1990
EXTT0=
EXTT1=
EXTT2=
EXTT3=
EXTT4=
EXTT5=
EXTT6=
EXTT7=
EXTT8=
EXTT9=
PLAYORDER=
